<svg id="Layer_1" data-name="Layer 1" xmlns="http://www.w3.org/2000/svg" viewBox="0 0 191 191"><defs><style>.cls-1{font-size:15px;fill:#5c5d60;font-family:Optima-Bold, Optima;font-weight:700;}.cls-2{letter-spacing:-0.06em;}.cls-3{letter-spacing:-0.02em;}.cls-4{letter-spacing:0em;}.cls-5{font-size:13px;font-family:Optima-Regular, Optima;font-weight:400;}.cls-5,.cls-8{fill:#0097a4;}.cls-6{letter-spacing:-0.01em;}.cls-7{fill:none;stroke:#231f20;stroke-miterlimit:10;stroke-width:0.5px;}</style></defs><title>AP_logo_website_sm</title><text class="cls-1" transform="translate(59.25 87.72) scale(1.09 1)"><tspan class="cls-2">A<tspan class="cls-3" x="9.18" y="0">w</tspan><tspan class="cls-4" x="20.58" y="0">ard</tspan></tspan><tspan class="cls-5"><tspan x="-40.68" y="13.6">PhotoG</tspan><tspan class="cls-6" x="1.96" y="13.6">r</tspan><tspan x="6.13" y="13.6">aphics</tspan></tspan></text><line class="cls-7" x1="111.86" y1="75.72" x2="111.86" y2="108.86"/><path class="cls-8" d="M146.24,101.66a1.72,1.72,0,0,1-.7.21,5.47,5.47,0,0,1-.69,0,2.26,2.26,0,0,1-1.49-.42,2.72,2.72,0,0,1-.76-1.06,4.12,4.12,0,0,1-.3-1.46c0-.55,0-1.06,0-1.55q0-3.82.13-7.26c.09-2.29.13-4.58.13-6.89a8.36,8.36,0,0,0-3-6.53,9.62,9.62,0,0,0-3.38-1.82,14.07,14.07,0,0,0-4.37-.64,18.35,18.35,0,0,0-5.17.73,19.13,19.13,0,0,0-5.5,2.79V81h.73a7.59,7.59,0,0,1,3.41-3,11.3,11.3,0,0,1,4.94-1.09,8,8,0,0,1,3.38.64,6.23,6.23,0,0,1,2.25,1.67,6.7,6.7,0,0,1,1.26,2.43,10.76,10.76,0,0,1,.4,2.91,4.7,4.7,0,0,1-.2,1.49,2,2,0,0,1-1.16,1,14.49,14.49,0,0,1-3,.82q-2,.41-5.6.94a14.18,14.18,0,0,0-6.86,2.68,6.85,6.85,0,0,0-2.48,5.65,6.27,6.27,0,0,0,.76,3.12,7.85,7.85,0,0,0,2,2.34,7.5,7.5,0,0,0,2.81,1.4,12.71,12.71,0,0,0,3.25.42,14,14,0,0,0,5.7-1,17.87,17.87,0,0,0,4.7-3.22,3.92,3.92,0,0,0,1.33,2.58,4.71,4.71,0,0,0,3.24,1,13.9,13.9,0,0,0,2.42-.19,8.49,8.49,0,0,0,1.82-.48Zm-9-4a10,10,0,0,1-3.21,3,8.68,8.68,0,0,1-4.61,1.28,6.15,6.15,0,0,1-4-1.46,5.24,5.24,0,0,1-1.79-4.31,5.08,5.08,0,0,1,.7-2.8,5.75,5.75,0,0,1,1.85-1.82,10.32,10.32,0,0,1,2.65-1.16,30.73,30.73,0,0,1,3-.69c1-.19,2-.36,3-.52a17.22,17.22,0,0,0,2.62-.61Z"/><path class="cls-8" d="M175.35,82.5a13.63,13.63,0,0,0-3-4.65,12.2,12.2,0,0,0-4.34-2.7,14.75,14.75,0,0,0-5-.88,13.15,13.15,0,0,0-4.37.67,12.45,12.45,0,0,0-3.28,1.67,11.33,11.33,0,0,0-2.22,2.13,12.21,12.21,0,0,0-1.32,2.09h-.14c0-1,.05-1.94.14-2.91s.22-2,.39-3a15,15,0,0,1-6,0c.09,1.05.17,2.31.23,3.76s.13,3,.17,4.59.08,3.21.1,4.83,0,3.12,0,4.49v9.84q0,2,0,4.35c0,1.6-.06,3.19-.1,4.76s-.1,3.09-.17,4.53-.14,2.66-.23,3.67a15,15,0,0,1,6,0c-.08-1-.16-2.23-.23-3.67s-.12-3-.16-4.53-.08-3.16-.1-4.76,0-3,0-4.35V98.57h.14q3.1,5.76,10.4,5.77a16.08,16.08,0,0,0,5.16-.88,12.67,12.67,0,0,0,4.61-2.77A14.12,14.12,0,0,0,175.25,96a16.66,16.66,0,0,0,1.26-6.75A17.67,17.67,0,0,0,175.35,82.5Zm-10.87,19.23-6.25-10.57-4.44,7.53a10,10,0,0,1-.92-1.75l6.36-10.81h-7.3c.07-.49.16-1,.26-1.44,0-.09.05-.16.07-.25h10.67l-4.27-7.23a9.63,9.63,0,0,1,1.76-.33l6.45,10.92,2.89-4.9.09.24a12.79,12.79,0,0,1,.51,2.07l-4.52,7.67h4.55c-.08.48-.17,1-.28,1.4,0,.1-.05.19-.07.28H162.2l3.77,6.38c-.16.11-.32.23-.49.33A7,7,0,0,1,164.48,101.73Z"/></svg>